<svg viewBox="0 0 300 298.36" xmlns="http://www.w3.org/2000/svg" xmlns:xlink="http://www.w3.org/1999/xlink"><linearGradient id="a"><stop offset="0" stop-color="#0ff"/><stop offset="1" stop-color="#0ff" stop-opacity="0"/></linearGradient><filter id="b" color-interpolation-filters="sRGB"><feGaussianBlur stdDeviation="2.643"/></filter><filter id="c" color-interpolation-filters="sRGB"><feGaussianBlur stdDeviation=".397"/></filter><filter id="d" color-interpolation-filters="sRGB"><feGaussianBlur stdDeviation="4.071"/></filter><linearGradient id="e" gradientUnits="userSpaceOnUse" x1="327" x2="236" y1="133" y2="391"><stop offset="0" stop-color="#00f"/><stop offset=".796" stop-color="navy"/><stop offset="1" stop-color="#025"/></linearGradient><radialGradient id="f" cx="251.02" cy="611.23" gradientTransform="matrix(.022787 2.1069 -1.6322 .017645 1243.8 58.902)" gradientUnits="userSpaceOnUse" r="166.9" xlink:href="#a"/><radialGradient id="g" cx="19.858" cy="251.12" gradientTransform="matrix(.099929 .87539 -.71027 .11453 196.24 205.38)" gradientUnits="userSpaceOnUse" r="13.789" xlink:href="#a"/><radialGradient id="h" cx="251.02" cy="611.23" gradientTransform="matrix(.013562 1.2539 -.97143 .010501 815.3 384)" gradientUnits="userSpaceOnUse" r="166.9" xlink:href="#a"/><g transform="translate(-72.954 -678.24)"><path d="m72.954 676.59h300.72v300h-300.72z" fill="#00112b"/><g transform="matrix(.59516 0 0 .59516 75.016 348.95)"><path d="m400 258.57c0 74.953-60.761 135.71-135.71 135.71-74.953 0-135.71-60.761-135.71-135.71 0-74.953 60.761-135.71 135.71-135.71 74.953 0 135.71 60.761 135.71 135.71z" fill="#0b1728" stroke="#0b1728" stroke-width="3" transform="matrix(1.7293 0 0 1.7293 -206.5 357.37)"/><path d="m400 258.57c0 74.953-60.761 135.71-135.71 135.71-74.953 0-135.71-60.761-135.71-135.71 0-74.953 60.761-135.71 135.71-135.71 74.953 0 135.71 60.761 135.71 135.71z" fill="#0ff" filter="url(#d)" stroke="#0ff" stroke-width="3" transform="matrix(1.7014 0 0 1.7014 -199.12 364.59)"/><path d="m400 258.57c0 74.953-60.761 135.71-135.71 135.71-74.953 0-135.71-60.761-135.71-135.71 0-74.953 60.761-135.71 135.71-135.71 74.953 0 135.71 60.761 135.71 135.71z" fill="url(#e)" transform="matrix(1.7293 0 0 1.7293 -206.5 357.37)"/><path d="m250.52 570.74c-111.72 0-204.68 80.35-224.32 186.39 19.614 73.24 112.58 128.71 224.32 128.71s204.7-55.469 224.32-128.71c-19.64-106.04-112.6-186.39-224.32-186.39z" fill="url(#f)"/><g fill="#0ff" filter="url(#b)" opacity=".8" transform="matrix(1.7495 0 0 1.7495 -211.84 -616.93)"><path d="m262.03 675.24c-18.364.94711-34.501 16.456-46.094 40.25-11.967 24.562-19.281 58.246-19.281 95.438s7.3146 70.876 19.281 95.438c11.593 23.794 27.73 39.305 46.094 40.25-17.358-1.0452-32.596-16.541-43.562-40.25-11.361-24.562-18.312-58.246-18.312-95.438s6.9513-70.876 18.312-95.438c10.967-23.709 26.205-39.203 43.562-40.25z"/><path d="m366.7 724.58c-18.737-21.224-46.523-30.535-76.244-29.172-30.68 1.4066-63.836 14.148-92.525 37.815-28.69 23.667-47.501 53.796-54.715 83.649-6.9879 28.92-3.1306 57.97 14.146 80.399-16.213-21.296-19.2-49.268-11.664-77.391 7.8069-29.134 26.975-58.831 55.665-82.498s61.489-36.84 91.576-38.966c29.042-2.0524 55.935 6.1992 73.762 26.164z"/><path d="m360.28 906.13c19.178-20.827 25.572-49.425 21.15-78.847-4.5647-30.371-20.659-62.035-47.16-88.13-26.501-26.094-58.41-41.697-88.848-45.792-29.487-3.9666-57.984 2.8676-78.51 22.366 19.51-18.324 47.024-24.181 75.774-19.587 29.784 4.7593 61.3 20.761 87.801 46.855s42.988 57.36 48.207 87.066c5.038 28.675-.39478 56.276-18.414 76.068z"/><path d="m174.93 917.02c11.841 10.036 31.352 7.3792 53.218-4.4222 22.572-12.182 47.952-34.227 71.026-63.307s39.49-59.71 47.395-85.936c7.6579-25.407 7.392-47.004-3.2753-58.52 9.9887 11.003 9.7128 32.061 1.7242 57.035-8.2759 25.871-24.914 56.288-47.988 85.368s-48.232 51.338-70.433 63.875c-21.43 12.102-40.38 15.275-51.667 5.9076z"/><path d="m169.06 715.16c-16.702 22.86-19.824 51.998-12.106 80.731 7.9668 29.661 27.535 59.304 56.815 82.237s62.747 34.831 93.453 35.461c29.746.60984 57.289-9.4002 75.481-31.093-17.315 20.411-43.991 29.339-73.076 28.023-30.131-1.3638-63.253-13.702-92.533-36.636-29.28-22.933-49.193-52.136-57.735-81.062-8.2455-27.923-5.9658-55.96 9.7015-77.661z"/><path d="m366.17 910.45c7.1809-27.241.4723-55.646-15.57-79.904-16.56-25.04-43.244-46.029-76.235-57.351-32.99-11.322-66.064-10.84-93.078-.75325-26.169 9.7713-46.976 28.734-55.836 55.399 8.5087-25.158 28.909-42.805 54.73-51.684 26.749-9.198 59.664-9.1464 92.655 2.1751 32.99 11.322 59.833 31.778 76.658 55.929 16.241 23.313 23.329 50.394 16.676 76.188z"/></g><g fill="#0ff" filter="url(#c)" opacity=".5" transform="matrix(1.7495 0 0 1.7495 -211.84 -616.93)"><path d="m262.03 675.24c-18.364.94711-34.501 16.456-46.094 40.25-11.967 24.562-19.281 58.246-19.281 95.438s7.3146 70.876 19.281 95.438c11.593 23.794 27.73 39.305 46.094 40.25-17.358-1.0452-32.596-16.541-43.562-40.25-11.361-24.562-18.312-58.246-18.312-95.438s6.9513-70.876 18.312-95.438c10.967-23.709 26.205-39.203 43.562-40.25z"/><path d="m366.7 724.58c-18.737-21.224-46.523-30.535-76.244-29.172-30.68 1.4066-63.836 14.148-92.525 37.815-28.69 23.667-47.501 53.796-54.715 83.649-6.9879 28.92-3.1306 57.97 14.146 80.399-16.213-21.296-19.2-49.268-11.664-77.391 7.8069-29.134 26.975-58.831 55.665-82.498s61.489-36.84 91.576-38.966c29.042-2.0524 55.935 6.1992 73.762 26.164z"/><path d="m360.28 906.13c19.178-20.827 25.572-49.425 21.15-78.847-4.5647-30.371-20.659-62.035-47.16-88.13-26.501-26.094-58.41-41.697-88.848-45.792-29.487-3.9666-57.984 2.8676-78.51 22.366 19.51-18.324 47.024-24.181 75.774-19.587 29.784 4.7593 61.3 20.761 87.801 46.855s42.988 57.36 48.207 87.066c5.038 28.675-.39478 56.276-18.414 76.068z"/><path d="m174.93 917.02c11.841 10.036 31.352 7.3792 53.218-4.4222 22.572-12.182 47.952-34.227 71.026-63.307s39.49-59.71 47.395-85.936c7.6579-25.407 7.392-47.004-3.2753-58.52 9.9887 11.003 9.7128 32.061 1.7242 57.035-8.2759 25.871-24.914 56.288-47.988 85.368s-48.232 51.338-70.433 63.875c-21.43 12.102-40.38 15.275-51.667 5.9076z"/><path d="m169.06 715.16c-16.702 22.86-19.824 51.998-12.106 80.731 7.9668 29.661 27.535 59.304 56.815 82.237s62.747 34.831 93.453 35.461c29.746.60984 57.289-9.4002 75.481-31.093-17.315 20.411-43.991 29.339-73.076 28.023-30.131-1.3638-63.253-13.702-92.533-36.636-29.28-22.933-49.193-52.136-57.735-81.062-8.2455-27.923-5.9658-55.96 9.7015-77.661z"/><path d="m366.17 910.45c7.1809-27.241.4723-55.646-15.57-79.904-16.56-25.04-43.244-46.029-76.235-57.351-32.99-11.322-66.064-10.84-93.078-.75325-26.169 9.7713-46.976 28.734-55.836 55.399 8.5087-25.158 28.909-42.805 54.73-51.684 26.749-9.198 59.664-9.1464 92.655 2.1751 32.99 11.322 59.833 31.778 76.658 55.929 16.241 23.313 23.329 50.394 16.676 76.188z"/></g><path id="i" d="m33.234 249.68c0 9.7631-6.1734 17.678-13.789 17.678-7.6152 0-13.789-7.9146-13.789-17.678 0-9.7631 6.1734-17.678 13.789-17.678 7.6152 0 13.789 7.9146 13.789 17.678z" fill="url(#g)" opacity=".8" transform="matrix(1.1431 0 0 .96182 39.911 519.37)"/><use id="j" height="500" transform="translate(82.117 136.86)" width="500" xlink:href="#i"/><use height="500" transform="translate(250.86 -187.9)" width="500" xlink:href="#j"/><use height="500" transform="translate(150.55 -56.113)" width="500" xlink:href="#k"/><path d="m217.04 598.88c12.44 2.1599 24.517 5.6897 36.568 9.3665-86.286 21.399-162.19 83.794-198.75 164.96-5.857 13.551-10.729 27.457-13.986 41.871 5.5093-19.858 14.264-41.058 24.336-57.311 4.2189-8.2313 11.459-19.238 17.786-27.922 21.245-29.25 47.747-54.368 77.205-75.408 12.154-7.9159 26.884-17.278 40.93-24.122 18.001-8.5077 36.91-16.784 56.285-20.529 78.925 29.183 144.66 92.052 178.8 168.74 7.6936 17.656 13.532 36.152 16.955 55.111-12.295-84.421-68.901-157.82-141.27-201.1-16.531-9.8353-34.196-17.693-52.35-24.079 13.054-2.6521 26.12-5.2557 39.391-6.1588-14.497.25455-28.813 2.9146-42.94 5.2179-13.097-4.0805-26.656-7.2098-40.289-8.8533l1.3258.21386zm-71.938 105.98c.62785-2.5046.44502-2.0072 0 0zm-.85536 4.0631c-1.3122 6.1551-2.4616 12.346-3.4643 18.562-12.299 2.3471-24.485 5.5915-36.183 10.136 11.67-3.9047 23.693-6.5899 35.884-8.5111-8.4737 55.044-7.1762 111.75 3.7637 166.37-35.774-34.044-65.14-75.772-79.551-123.39 19.946 75.738 76.05 137.77 144.22 174.5 36.426 19.486 77.436 31.562 118.98 32.077-68.939-4.0979-133.31-36.954-183.44-83.229-10.605-54.64-11.616-111.28-3.6354-166.33 82.477-11.419 168.5 18.405 228.99 74.846 10.356 9.8418 19.984 20.603 28.484 32.163-53.64-78.46-153.32-122.36-247.61-110.19-10.513 4.206-10.041-2.256-7.4893-10.872.18427-1.462 3.0028-14.966 1.0598-6.1323zm-82.673 48.8c-.21356 1.1145.97918-.0501 0 0z" fill="#fff"/><path d="m403.62 662.24c-2.3867 15.294-5.427 41.552-8.1634 46.589l-67.491 13.937 68.481-12.456 60.652 31.641-59.214-32.761c2.2981-9.8917 5.2129-34.186 5.7353-46.95z" fill="#fff"/><path id="k" d="m33.234 249.68c0 9.7631-6.1734 17.678-13.789 17.678-7.6152 0-13.789-7.9146-13.789-17.678 0-9.7631 6.1734-17.678 13.789-17.678 7.6152 0 13.789 7.9146 13.789 17.678z" fill="url(#g)" opacity=".8" transform="matrix(.86709 0 0 .72955 132.87 502.09)"/><use height="500" transform="matrix(.61624 0 0 .61624 101.26 585.58)" width="500" xlink:href="#k"/><path d="m33.234 249.68c0 9.7631-6.1734 17.678-13.789 17.678-7.6152 0-13.789-7.9146-13.789-17.678 0-9.7631 6.1734-17.678 13.789-17.678 7.6152 0 13.789 7.9146 13.789 17.678z" fill="url(#g)" opacity=".56" transform="matrix(.95911 0 0 .80697 413.02 566.24)"/></g><path d="m400 258.57a135.71 135.71 0 1 1 -271.43 0 135.71 135.71 0 1 1 271.43 0z" fill="#0ff" filter="url(#d)" stroke="#0ff" stroke-width="3" transform="matrix(1.0085 0 0 1.0085 -42.424 566.98)"/><path d="m400 258.57a135.71 135.71 0 1 1 -271.43 0 135.71 135.71 0 1 1 271.43 0z" fill="url(#e)" transform="matrix(1.0292 0 0 1.0292 -47.887 561.64)"/><path d="m224.11 688.62c-66.493 0-121.82 47.821-133.5 110.93 11.673 43.589 67.001 76.601 133.5 76.601 66.503 0 121.83-33.013 133.5-76.601-11.686-63.109-67.012-110.93-133.5-110.93z" fill="url(#h)"/><g fill="#0ff" filter="url(#c)" opacity=".5" transform="matrix(1.0412 0 0 1.0412 -51.06 -18.226)"><path d="m262.03 675.24c-18.364.94711-34.501 16.456-46.094 40.25-11.967 24.562-19.281 58.246-19.281 95.438s7.3146 70.876 19.281 95.438c11.593 23.794 27.73 39.305 46.094 40.25-17.358-1.0452-32.596-16.541-43.562-40.25-11.361-24.562-18.312-58.246-18.312-95.438s6.9513-70.876 18.312-95.438c10.967-23.709 26.205-39.203 43.562-40.25z"/><path d="m366.7 724.58c-18.737-21.224-46.523-30.535-76.244-29.172-30.68 1.4066-63.836 14.148-92.525 37.815-28.69 23.667-47.501 53.796-54.715 83.649-6.9879 28.92-3.1306 57.97 14.146 80.399-16.213-21.296-19.2-49.268-11.664-77.391 7.8069-29.134 26.975-58.831 55.665-82.498s61.489-36.84 91.576-38.966c29.042-2.0524 55.935 6.1992 73.762 26.164z"/><path d="m360.28 906.13c19.178-20.827 25.572-49.425 21.15-78.847-4.5647-30.371-20.659-62.035-47.16-88.13-26.501-26.094-58.41-41.697-88.848-45.792-29.487-3.9666-57.984 2.8676-78.51 22.366 19.51-18.324 47.024-24.181 75.774-19.587 29.784 4.7593 61.3 20.761 87.801 46.855s42.988 57.36 48.207 87.066c5.038 28.675-.39478 56.276-18.414 76.068z"/><path d="m174.93 917.02c11.841 10.036 31.352 7.3792 53.218-4.4222 22.572-12.182 47.952-34.227 71.026-63.307s39.49-59.71 47.395-85.936c7.6579-25.407 7.392-47.004-3.2753-58.52 9.9887 11.003 9.7128 32.061 1.7242 57.035-8.2759 25.871-24.914 56.288-47.988 85.368s-48.232 51.338-70.433 63.875c-21.43 12.102-40.38 15.275-51.667 5.9076z"/><path d="m169.06 715.16c-16.702 22.86-19.824 51.998-12.106 80.731 7.9668 29.661 27.535 59.304 56.815 82.237s62.747 34.831 93.453 35.461c29.746.60984 57.289-9.4002 75.481-31.093-17.315 20.411-43.991 29.339-73.076 28.023-30.131-1.3638-63.253-13.702-92.533-36.636-29.28-22.933-49.193-52.136-57.735-81.062-8.2455-27.923-5.9658-55.96 9.7015-77.661z"/><path d="m366.17 910.45c7.1809-27.241.4723-55.646-15.57-79.904-16.56-25.04-43.244-46.029-76.235-57.351-32.99-11.322-66.064-10.84-93.078-.75325-26.169 9.7713-46.976 28.734-55.836 55.399 8.5087-25.158 28.909-42.805 54.73-51.684 26.749-9.198 59.664-9.1464 92.655 2.1751 32.99 11.322 59.833 31.778 76.658 55.929 16.241 23.313 23.329 50.394 16.676 76.188z"/></g><path d="m33.234 249.68a13.789 17.678 0 1 1 -27.577 0 13.789 17.678 0 1 1 27.577 0z" fill="url(#g)" opacity=".8" transform="matrix(.68035 0 0 .57243 98.769 658.05)"/><use height="500" transform="matrix(.59516 0 0 .59516 123.89 430.4)" width="500" xlink:href="#i"/><use height="500" transform="matrix(.59516 0 0 .59516 224.32 237.11)" width="500" xlink:href="#j"/><use height="500" transform="matrix(.59516 0 0 .59516 164.62 315.55)" width="500" xlink:href="#k"/><path d="m315.23 743.08c-1.4205 9.1021-3.2299 24.73-4.8585 27.728l-40.168 8.295 40.757-7.4135 36.098 18.831-35.242-19.498c1.3677-5.8871 3.1025-20.346 3.4134-27.942z" fill="#fff"/><path d="m33.234 249.68a13.789 17.678 0 1 1 -27.577 0 13.789 17.678 0 1 1 27.577 0z" fill="url(#g)" opacity=".8" transform="matrix(.51606 0 0 .4342 154.09 647.77)"/><use height="500" transform="matrix(.36676 0 0 .36676 135.28 697.46)" width="500" xlink:href="#k"/><path d="m33.234 249.68a13.789 17.678 0 1 1 -27.577 0 13.789 17.678 0 1 1 27.577 0z" fill="url(#g)" opacity=".56" transform="matrix(.57082 0 0 .48028 320.83 685.95)"/><g fill="#0ff" filter="url(#b)" opacity=".8" transform="matrix(1.0412 0 0 1.0412 -51.06 -18.226)"><path d="m262.03 675.24c-18.364.94711-34.501 16.456-46.094 40.25-11.967 24.562-19.281 58.246-19.281 95.438s7.3146 70.876 19.281 95.438c11.593 23.794 27.73 39.305 46.094 40.25-17.358-1.0452-32.596-16.541-43.562-40.25-11.361-24.562-18.312-58.246-18.312-95.438s6.9513-70.876 18.312-95.438c10.967-23.709 26.205-39.203 43.562-40.25z"/><path d="m366.7 724.58c-18.737-21.224-46.523-30.535-76.244-29.172-30.68 1.4066-63.836 14.148-92.525 37.815-28.69 23.667-47.501 53.796-54.715 83.649-6.9879 28.92-3.1306 57.97 14.146 80.399-16.213-21.296-19.2-49.268-11.664-77.391 7.8069-29.134 26.975-58.831 55.665-82.498s61.489-36.84 91.576-38.966c29.042-2.0524 55.935 6.1992 73.762 26.164z"/><path d="m360.28 906.13c19.178-20.827 25.572-49.425 21.15-78.847-4.5647-30.371-20.659-62.035-47.16-88.13-26.501-26.094-58.41-41.697-88.848-45.792-29.487-3.9666-57.984 2.8676-78.51 22.366 19.51-18.324 47.024-24.181 75.774-19.587 29.784 4.7593 61.3 20.761 87.801 46.855s42.988 57.36 48.207 87.066c5.038 28.675-.39478 56.276-18.414 76.068z"/><path d="m174.93 917.02c11.841 10.036 31.352 7.3792 53.218-4.4222 22.572-12.182 47.952-34.227 71.026-63.307s39.49-59.71 47.395-85.936c7.6579-25.407 7.392-47.004-3.2753-58.52 9.9887 11.003 9.7128 32.061 1.7242 57.035-8.2759 25.871-24.914 56.288-47.988 85.368s-48.232 51.338-70.433 63.875c-21.43 12.102-40.38 15.275-51.667 5.9076z"/><path d="m169.06 715.16c-16.702 22.86-19.824 51.998-12.106 80.731 7.9668 29.661 27.535 59.304 56.815 82.237s62.747 34.831 93.453 35.461c29.746.60984 57.289-9.4002 75.481-31.093-17.315 20.411-43.991 29.339-73.076 28.023-30.131-1.3638-63.253-13.702-92.533-36.636-29.28-22.933-49.193-52.136-57.735-81.062-8.2455-27.923-5.9658-55.96 9.7015-77.661z"/><path d="m366.17 910.45c7.1809-27.241.4723-55.646-15.57-79.904-16.56-25.04-43.244-46.029-76.235-57.351-32.99-11.322-66.064-10.84-93.078-.75325-26.169 9.7713-46.976 28.734-55.836 55.399 8.5087-25.158 28.909-42.805 54.73-51.684 26.749-9.198 59.664-9.1464 92.655 2.1751 32.99 11.322 59.833 31.778 76.658 55.929 16.241 23.313 23.329 50.394 16.676 76.188z"/></g><path d="m204.19 705.37c7.4039 1.2855 14.592 3.3862 21.764 5.5745-51.354 12.736-96.529 49.871-118.29 98.178-3.4858 8.0652-6.3853 16.341-8.3236 24.92 3.2789-11.819 8.4893-24.436 14.484-34.109 2.5109-4.8989 6.82-11.45 10.585-16.618 12.644-17.408 28.417-32.357 45.949-44.88 7.2333-4.7112 16-10.283 24.36-14.356 10.714-5.0634 21.967-9.9891 33.498-12.218 46.973 17.369 86.095 54.785 106.41 100.43 4.5789 10.508 8.0536 21.516 10.091 32.8-7.3173-50.244-41.007-93.93-84.076-119.69-9.8383-5.8536-20.352-10.53-31.156-14.331 7.769-1.5784 15.545-3.128 23.444-3.6654-8.6283.1515-17.148 1.7347-25.556 3.1054-7.795-2.4285-15.865-4.291-23.978-5.2691l.78909.12728zm-42.815 63.076c.37367-1.4906.26485-1.1946 0 0zm-.50908 2.4182c-.78095 3.6633-1.465 7.348-2.0618 11.047-7.3201 1.3969-14.573 3.3278-21.535 6.0327 6.9457-2.3239 14.101-3.922 21.356-5.0655-5.0432 32.76-4.271 66.51 2.24 99.018-21.291-20.261-38.769-45.096-47.345-73.436 11.871 45.076 45.262 81.998 85.833 103.85 21.679 11.597 46.086 18.784 70.815 19.091-41.03-2.4389-79.339-21.993-109.17-49.535-6.3119-32.519-6.9132-66.229-2.1636-98.993 49.087-6.7962 100.28 10.954 136.28 44.545 6.1635 5.8574 11.894 12.262 16.953 19.142-31.932-46.698-91.258-72.824-147.37-65.582-6.2567 2.5032-5.9762-1.3427-4.4573-6.4705.10967-.87009 1.7871-8.9073.63076-3.6497zm-49.204 29.044c-.1271.66333.58276-.0298 0 0z" fill="#fff"/></g></svg>